<mxfile host="Electron" modified="2023-05-22T06:31:52.945Z" agent="Mozilla/5.0 (Macintosh; Intel Mac OS X 10_15_7) AppleWebKit/537.36 (KHTML, like Gecko) draw.io/21.1.2 Chrome/106.0.5249.199 Electron/21.4.3 Safari/537.36" etag="Yxfwb_Kcuu8YPDiZJ3nW" version="21.1.2" type="device" pages="2">
  <diagram name="chatpdf" id="3yJkjpWq_DThD7RBhSH3">
    <mxGraphModel dx="1687" dy="902" grid="1" gridSize="10" guides="1" tooltips="1" connect="1" arrows="1" fold="1" page="1" pageScale="1" pageWidth="1169" pageHeight="827" math="0" shadow="0">
      <root>
        <mxCell id="0" />
        <mxCell id="1" parent="0" />
        <mxCell id="78RNqBWP-rc4ARrzrngz-1" value="读取整个文件" style="rounded=1;whiteSpace=wrap;html=1;shadow=0;glass=0;fillStyle=auto;sketch=1;curveFitting=1;jiggle=2;fillColor=#fff2cc;strokeColor=#d6b656;fontSize=14;" vertex="1" parent="1">
          <mxGeometry x="350" y="40" width="120" height="60" as="geometry" />
        </mxCell>
        <mxCell id="78RNqBWP-rc4ARrzrngz-3" value="" style="shape=flexArrow;endArrow=classic;html=1;rounded=0;sketch=1;curveFitting=1;jiggle=2;entryX=0;entryY=0.5;entryDx=0;entryDy=0;exitX=1;exitY=0.5;exitDx=0;exitDy=0;" edge="1" parent="1" source="78RNqBWP-rc4ARrzrngz-4" target="78RNqBWP-rc4ARrzrngz-1">
          <mxGeometry width="50" height="50" relative="1" as="geometry">
            <mxPoint x="400" y="69.5" as="sourcePoint" />
            <mxPoint x="480" y="69.5" as="targetPoint" />
          </mxGeometry>
        </mxCell>
        <mxCell id="78RNqBWP-rc4ARrzrngz-4" value="不同类型的文件&lt;br style=&quot;font-size: 13px;&quot;&gt;pdf/text/textgrid" style="ellipse;whiteSpace=wrap;html=1;fillColor=#d5e8d4;strokeColor=#82b366;sketch=1;curveFitting=1;jiggle=2;fontSize=13;" vertex="1" parent="1">
          <mxGeometry x="190" y="30" width="120" height="80" as="geometry" />
        </mxCell>
        <mxCell id="78RNqBWP-rc4ARrzrngz-6" value="长长的字符串" style="ellipse;whiteSpace=wrap;html=1;fillColor=#d5e8d4;strokeColor=#82b366;sketch=1;curveFitting=1;jiggle=2;fontSize=13;" vertex="1" parent="1">
          <mxGeometry x="520" y="30" width="120" height="80" as="geometry" />
        </mxCell>
        <mxCell id="78RNqBWP-rc4ARrzrngz-9" value="" style="shape=flexArrow;endArrow=classic;html=1;rounded=0;sketch=1;curveFitting=1;jiggle=2;entryX=0;entryY=0.5;entryDx=0;entryDy=0;exitX=1;exitY=0.5;exitDx=0;exitDy=0;" edge="1" parent="1" source="78RNqBWP-rc4ARrzrngz-1" target="78RNqBWP-rc4ARrzrngz-6">
          <mxGeometry width="50" height="50" relative="1" as="geometry">
            <mxPoint x="580" y="69.5" as="sourcePoint" />
            <mxPoint x="650" y="69.5" as="targetPoint" />
          </mxGeometry>
        </mxCell>
        <mxCell id="78RNqBWP-rc4ARrzrngz-10" value="文本分割" style="whiteSpace=wrap;html=1;fontSize=14;fillColor=#fff2cc;strokeColor=#d6b656;sketch=1;curveFitting=1;jiggle=2;" vertex="1" parent="1">
          <mxGeometry x="685" y="40" width="120" height="60" as="geometry" />
        </mxCell>
        <mxCell id="78RNqBWP-rc4ARrzrngz-12" value="" style="shape=flexArrow;endArrow=classic;html=1;rounded=0;sketch=1;curveFitting=1;jiggle=2;entryX=0;entryY=0.5;entryDx=0;entryDy=0;" edge="1" parent="1" source="78RNqBWP-rc4ARrzrngz-6" target="78RNqBWP-rc4ARrzrngz-10">
          <mxGeometry width="50" height="50" relative="1" as="geometry">
            <mxPoint x="770" y="69.5" as="sourcePoint" />
            <mxPoint x="830" y="69.5" as="targetPoint" />
          </mxGeometry>
        </mxCell>
        <mxCell id="78RNqBWP-rc4ARrzrngz-16" value="" style="shape=flexArrow;endArrow=classic;html=1;rounded=0;sketch=1;curveFitting=1;jiggle=2;exitX=0.5;exitY=1;exitDx=0;exitDy=0;entryX=0.5;entryY=0;entryDx=0;entryDy=0;" edge="1" parent="1" source="78RNqBWP-rc4ARrzrngz-10" target="78RNqBWP-rc4ARrzrngz-17">
          <mxGeometry width="50" height="50" relative="1" as="geometry">
            <mxPoint x="745" y="110" as="sourcePoint" />
            <mxPoint x="745" y="160" as="targetPoint" />
          </mxGeometry>
        </mxCell>
        <mxCell id="78RNqBWP-rc4ARrzrngz-17" value="文本块列表（chunks）" style="ellipse;whiteSpace=wrap;html=1;fillColor=#d5e8d4;strokeColor=#82b366;sketch=1;curveFitting=1;jiggle=2;fontSize=13;" vertex="1" parent="1">
          <mxGeometry x="685" y="140" width="120" height="80" as="geometry" />
        </mxCell>
        <mxCell id="78RNqBWP-rc4ARrzrngz-23" value="Embedding模型&lt;br style=&quot;border-color: var(--border-color);&quot;&gt;(比如说llama)" style="whiteSpace=wrap;html=1;fontSize=14;sketch=1;curveFitting=1;jiggle=2;fillColor=#ffff88;strokeColor=#36393d;" vertex="1" parent="1">
          <mxGeometry x="685" y="260" width="120" height="50" as="geometry" />
        </mxCell>
        <mxCell id="78RNqBWP-rc4ARrzrngz-24" value="文本块的向量库" style="shape=cylinder3;whiteSpace=wrap;html=1;boundedLbl=1;backgroundOutline=1;size=15;sketch=1;curveFitting=1;jiggle=2;fillColor=#e1d5e7;strokeColor=#9673a6;fontSize=13;" vertex="1" parent="1">
          <mxGeometry x="715" y="350" width="60" height="80" as="geometry" />
        </mxCell>
        <mxCell id="78RNqBWP-rc4ARrzrngz-28" value="" style="shape=flexArrow;endArrow=classic;html=1;rounded=0;sketch=1;curveFitting=1;jiggle=2;exitX=0.5;exitY=1;exitDx=0;exitDy=0;entryX=0.5;entryY=0;entryDx=0;entryDy=0;" edge="1" parent="1" source="78RNqBWP-rc4ARrzrngz-17" target="78RNqBWP-rc4ARrzrngz-23">
          <mxGeometry width="50" height="50" relative="1" as="geometry">
            <mxPoint x="744" y="230" as="sourcePoint" />
            <mxPoint x="744" y="280" as="targetPoint" />
          </mxGeometry>
        </mxCell>
        <mxCell id="78RNqBWP-rc4ARrzrngz-31" value="" style="shape=flexArrow;endArrow=classic;html=1;rounded=0;sketch=1;curveFitting=1;jiggle=2;exitX=0.5;exitY=1;exitDx=0;exitDy=0;entryX=0.5;entryY=0;entryDx=0;entryDy=0;entryPerimeter=0;" edge="1" parent="1" source="78RNqBWP-rc4ARrzrngz-23" target="78RNqBWP-rc4ARrzrngz-24">
          <mxGeometry width="50" height="50" relative="1" as="geometry">
            <mxPoint x="744" y="360" as="sourcePoint" />
            <mxPoint x="744" y="414" as="targetPoint" />
          </mxGeometry>
        </mxCell>
        <mxCell id="78RNqBWP-rc4ARrzrngz-32" value="想要问的问题（query）" style="ellipse;whiteSpace=wrap;html=1;fillColor=#d5e8d4;strokeColor=#82b366;sketch=1;curveFitting=1;jiggle=2;fontSize=13;" vertex="1" parent="1">
          <mxGeometry x="30" y="355" width="110" height="70" as="geometry" />
        </mxCell>
        <mxCell id="78RNqBWP-rc4ARrzrngz-34" value="Embedding模型&lt;br style=&quot;border-color: var(--border-color);&quot;&gt;(比如说llama)" style="whiteSpace=wrap;html=1;fontSize=14;fillColor=#fff2cc;strokeColor=#d6b656;sketch=1;curveFitting=1;jiggle=2;" vertex="1" parent="1">
          <mxGeometry x="180" y="360" width="120" height="60" as="geometry" />
        </mxCell>
        <mxCell id="78RNqBWP-rc4ARrzrngz-36" value="" style="shape=flexArrow;endArrow=classic;html=1;rounded=0;sketch=1;curveFitting=1;jiggle=2;entryX=0;entryY=0.5;entryDx=0;entryDy=0;exitX=1;exitY=0.5;exitDx=0;exitDy=0;" edge="1" parent="1" source="78RNqBWP-rc4ARrzrngz-32" target="78RNqBWP-rc4ARrzrngz-34">
          <mxGeometry width="50" height="50" relative="1" as="geometry">
            <mxPoint x="160" y="395" as="sourcePoint" />
            <mxPoint x="200" y="395" as="targetPoint" />
          </mxGeometry>
        </mxCell>
        <mxCell id="78RNqBWP-rc4ARrzrngz-37" value="query的向量表征&lt;br&gt;embedding" style="ellipse;whiteSpace=wrap;html=1;fillColor=#d5e8d4;strokeColor=#82b366;sketch=1;curveFitting=1;jiggle=2;fontSize=13;" vertex="1" parent="1">
          <mxGeometry x="340" y="352.5" width="120" height="75" as="geometry" />
        </mxCell>
        <mxCell id="78RNqBWP-rc4ARrzrngz-39" value="" style="shape=flexArrow;endArrow=classic;html=1;rounded=0;sketch=1;curveFitting=1;jiggle=2;exitX=1;exitY=0.5;exitDx=0;exitDy=0;" edge="1" parent="1" source="78RNqBWP-rc4ARrzrngz-34" target="78RNqBWP-rc4ARrzrngz-37">
          <mxGeometry width="50" height="50" relative="1" as="geometry">
            <mxPoint x="310" y="395" as="sourcePoint" />
            <mxPoint x="350" y="395" as="targetPoint" />
          </mxGeometry>
        </mxCell>
        <mxCell id="78RNqBWP-rc4ARrzrngz-40" value="计算query的embedding跟向量库中的embedding的相似度" style="whiteSpace=wrap;html=1;fontSize=14;fillColor=#fff2cc;strokeColor=#d6b656;sketch=1;curveFitting=1;jiggle=2;" vertex="1" parent="1">
          <mxGeometry x="510" y="350" width="160" height="80" as="geometry" />
        </mxCell>
        <mxCell id="78RNqBWP-rc4ARrzrngz-41" value="" style="shape=flexArrow;endArrow=classic;html=1;rounded=0;sketch=1;curveFitting=1;jiggle=2;exitX=1;exitY=0.5;exitDx=0;exitDy=0;" edge="1" parent="1" source="78RNqBWP-rc4ARrzrngz-37">
          <mxGeometry width="50" height="50" relative="1" as="geometry">
            <mxPoint x="470" y="389.5" as="sourcePoint" />
            <mxPoint x="510" y="390" as="targetPoint" />
          </mxGeometry>
        </mxCell>
        <mxCell id="78RNqBWP-rc4ARrzrngz-43" value="" style="shape=flexArrow;endArrow=classic;html=1;rounded=0;sketch=1;curveFitting=1;jiggle=2;exitX=0;exitY=0.5;exitDx=0;exitDy=0;exitPerimeter=0;" edge="1" parent="1" source="78RNqBWP-rc4ARrzrngz-24" target="78RNqBWP-rc4ARrzrngz-40">
          <mxGeometry width="50" height="50" relative="1" as="geometry">
            <mxPoint x="700" y="540" as="sourcePoint" />
            <mxPoint x="640" y="540" as="targetPoint" />
          </mxGeometry>
        </mxCell>
        <mxCell id="78RNqBWP-rc4ARrzrngz-45" value="top k个最相似的embedding和对应的文本块" style="ellipse;whiteSpace=wrap;html=1;fillColor=#d5e8d4;strokeColor=#82b366;sketch=1;curveFitting=1;jiggle=2;fontSize=13;" vertex="1" parent="1">
          <mxGeometry x="530" y="470" width="120" height="75" as="geometry" />
        </mxCell>
        <mxCell id="78RNqBWP-rc4ARrzrngz-48" value="" style="shape=flexArrow;endArrow=classic;html=1;rounded=0;sketch=1;curveFitting=1;jiggle=2;exitX=0.5;exitY=1;exitDx=0;exitDy=0;entryX=0.5;entryY=0;entryDx=0;entryDy=0;" edge="1" parent="1" source="78RNqBWP-rc4ARrzrngz-40" target="78RNqBWP-rc4ARrzrngz-45">
          <mxGeometry width="50" height="50" relative="1" as="geometry">
            <mxPoint x="410" y="530" as="sourcePoint" />
            <mxPoint x="410" y="600" as="targetPoint" />
          </mxGeometry>
        </mxCell>
        <mxCell id="78RNqBWP-rc4ARrzrngz-49" value="对话模型&lt;br&gt;(比如说ChatGLM-6B)" style="whiteSpace=wrap;html=1;fontSize=13;fillColor=#ffff88;strokeColor=#36393d;sketch=1;curveFitting=1;jiggle=2;" vertex="1" parent="1">
          <mxGeometry x="515" y="690" width="150" height="70" as="geometry" />
        </mxCell>
        <mxCell id="78RNqBWP-rc4ARrzrngz-51" value="" style="shape=flexArrow;endArrow=classic;html=1;rounded=0;sketch=1;curveFitting=1;jiggle=2;exitX=0.5;exitY=1;exitDx=0;exitDy=0;entryX=0.5;entryY=0;entryDx=0;entryDy=0;" edge="1" parent="1" source="78RNqBWP-rc4ARrzrngz-45" target="78RNqBWP-rc4ARrzrngz-52">
          <mxGeometry width="50" height="50" relative="1" as="geometry">
            <mxPoint x="589.5" y="560" as="sourcePoint" />
            <mxPoint x="589.5" y="605" as="targetPoint" />
          </mxGeometry>
        </mxCell>
        <mxCell id="78RNqBWP-rc4ARrzrngz-52" value="query的文本&lt;br style=&quot;border-color: var(--border-color);&quot;&gt;+&lt;br style=&quot;border-color: var(--border-color);&quot;&gt;top k个最相似的文本" style="ellipse;whiteSpace=wrap;html=1;fillColor=#d5e8d4;strokeColor=#82b366;sketch=1;curveFitting=1;jiggle=2;fontSize=13;" vertex="1" parent="1">
          <mxGeometry x="530" y="580" width="120" height="75" as="geometry" />
        </mxCell>
        <mxCell id="78RNqBWP-rc4ARrzrngz-54" value="" style="shape=flexArrow;endArrow=classic;html=1;rounded=0;sketch=1;curveFitting=1;jiggle=2;exitX=0.5;exitY=1;exitDx=0;exitDy=0;entryX=0.5;entryY=0;entryDx=0;entryDy=0;" edge="1" parent="1" source="78RNqBWP-rc4ARrzrngz-52" target="78RNqBWP-rc4ARrzrngz-49">
          <mxGeometry width="50" height="50" relative="1" as="geometry">
            <mxPoint x="589.5" y="665" as="sourcePoint" />
            <mxPoint x="590" y="710" as="targetPoint" />
          </mxGeometry>
        </mxCell>
        <mxCell id="78RNqBWP-rc4ARrzrngz-56" value="最终的回答结果" style="ellipse;whiteSpace=wrap;html=1;fillColor=#ffcccc;strokeColor=#36393d;sketch=1;curveFitting=1;jiggle=2;fontSize=13;" vertex="1" parent="1">
          <mxGeometry x="720" y="690" width="110" height="70" as="geometry" />
        </mxCell>
        <mxCell id="78RNqBWP-rc4ARrzrngz-58" value="" style="shape=flexArrow;endArrow=classic;html=1;rounded=0;sketch=1;curveFitting=1;jiggle=2;exitX=1;exitY=0.5;exitDx=0;exitDy=0;entryX=0;entryY=0.5;entryDx=0;entryDy=0;" edge="1" parent="1" source="78RNqBWP-rc4ARrzrngz-49" target="78RNqBWP-rc4ARrzrngz-56">
          <mxGeometry width="50" height="50" relative="1" as="geometry">
            <mxPoint x="670" y="724.5" as="sourcePoint" />
            <mxPoint x="710" y="724.5" as="targetPoint" />
          </mxGeometry>
        </mxCell>
      </root>
    </mxGraphModel>
  </diagram>
  <diagram id="OBabL3lIifcfBI84XHsT" name="peft">
    <mxGraphModel dx="1434" dy="767" grid="1" gridSize="10" guides="1" tooltips="1" connect="1" arrows="1" fold="1" page="1" pageScale="1" pageWidth="1169" pageHeight="827" math="0" shadow="0">
      <root>
        <mxCell id="0" />
        <mxCell id="1" parent="0" />
      </root>
    </mxGraphModel>
  </diagram>
</mxfile>
